<?xml version="1.0" encoding="utf-8"?>
<!-- Generator: Adobe Illustrator 19.0.0, SVG Export Plug-In . SVG Version: 6.00 Build 0)  -->
<svg version="1.1" id="Layer_1" xmlns="http://www.w3.org/2000/svg" xmlns:xlink="http://www.w3.org/1999/xlink" x="0px" y="0px"
	 viewBox="0 0 116.5 49.8" style="enable-background:new 0 0 116.5 49.8;" xml:space="preserve">
<style type="text/css">
	.st0{fill:#FFFFFF;}
</style>
<g id="Rasenroboter_2_6_">
	<g id="XMLID_95_">
		<path id="XMLID_96_" class="st0" d="M31.1,9.1l4.2,4.7l4.2,4.7c1.4,1.5,2.8,3.1,4.3,4.6c0.7,0.7,1.5,1.4,2.3,2
			c0.8,0.6,1.6,1,2.5,1.3c1.9,0.5,4,0.7,6.1,0.9l25.1,2.9l6.3,0.7l3.1,0.4c1,0.1,2.1,0.2,3.1,0.3c1,0.1,2,0.1,2.8-0.1
			c0.8-0.2,1.6-0.5,2.4-1.1c0.4-0.3,0.7-0.6,1.2-0.9l1.2-1l2.4-2L111,19c-0.2-0.1-0.4-0.2-0.7-0.4c-7.8-3.8-24.8-12-52.4-15.9
			C37.3-0.2,27.9,0,25.6,0c-1.2,0-1.7,0-2.3,0.2c1.2,1.4,2.4,2.7,3.6,4.1L31.1,9.1z"/>
	</g>
	<circle id="XMLID_94_" class="st0" cx="16.7" cy="33.1" r="3.7"/>
	<path id="XMLID_91_" class="st0" d="M16.7,16.4C7.5,16.4,0,23.9,0,33.1c0,9.2,7.5,16.7,16.7,16.7c9.2,0,16.7-7.5,16.7-16.7
		C33.4,23.9,25.9,16.4,16.7,16.4z M16.7,45.1c-6.7,0-12-5.4-12-12c0-6.7,5.4-12,12-12s12,5.4,12,12C28.7,39.7,23.3,45.1,16.7,45.1z"
		/>
	<path id="XMLID_88_" class="st0" d="M108.6,35.8c3.9-2.2,4.8-2.7,6.9-3.9c1.2-0.7,1.2-0.7,0.9-2.2c-0.3-1.7-1.8-5.3-2.3-6.5
		c-0.4-0.9-0.9-1.8-1.1-2.3l-9.1,7.4l-2.4,2l-1.2,1c-0.4,0.3-0.8,0.7-1.3,1c-0.9,0.7-2.1,1.2-3.3,1.5c-1.2,0.2-2.4,0.2-3.5,0.1
		c-1.1-0.1-2.1-0.3-3.2-0.4l-3.1-0.4l-6.3-0.8c-8.4-1-16.7-2.2-25-3.3l-3.1-0.4c-1.1-0.2-2.1-0.3-3.2-0.7c-1.1-0.3-2.1-0.9-3-1.6
		c-0.9-0.7-1.6-1.5-2.4-2.2c-2.9-3.1-5.6-6.3-8.4-9.5l-4.2-4.7l-4.1-4.8c-1.2-1.4-2.4-2.8-3.6-4.2c-0.3,0.2-0.5,0.5-0.9,0.8
		c-1.4,1.3-4.2,3.1-6.1,4.5c-3.2,2.3-3.5,2.3-4.5,2.8c-1.7,0.9-2.2,2.3-2.6,4.2c-0.1,0.5-0.2,1.3-0.2,1.3s0.5-0.2,1.3-0.5
		c2.1-0.8,4.8-1.4,7.3-1.4c11.3,0,20.5,9.2,20.5,20.5c0,4.1-1.2,8-3.3,11.2l1.6,3.3c0,0,0.3,0,1.4,0c5.6,0,7.2-7.3,18.6-7.3
		c6.2,0,18.4,0,30.3,0c4.3,0,6,2.6,8.1,6.1c0,0,0,0,0,0c1.1,2,3.2,3.3,5.6,3.3c2.9,0,5.4-1.9,6.2-4.6c0,0,0,0,0.1-0.4
		C106.4,42.6,105,37.8,108.6,35.8z M99.6,47c-2.1,0-3.7-1.7-3.7-3.7c0-2.1,1.7-3.7,3.7-3.7c2.1,0,3.7,1.7,3.7,3.7
		C103.3,45.4,101.6,47,99.6,47z"/>
</g>
</svg>
